<svg xmlns="http://www.w3.org/2000/svg" viewBox="0 0 28 22">
  <path d="M27.443 10.1938C24.4805 3.95313 20.0023 0.8125 13.9992 0.8125C7.99295 0.8125 3.51795 3.95312 0.555454 10.1969C0.436627 10.4485 0.375 10.7233 0.375 11.0016C0.375 11.2798 0.436627 11.5546 0.555454 11.8062C3.51795 18.0469 7.99608 21.1875 13.9992 21.1875C20.0055 21.1875 24.4805 18.0469 27.443 11.8031C27.6836 11.2969 27.6836 10.7094 27.443 10.1938ZM13.9992 18.9375C8.95858 18.9375 5.26795 16.3813 2.66483 11C5.26795 5.61875 8.95858 3.0625 13.9992 3.0625C19.0398 3.0625 22.7305 5.61875 25.3336 11C22.7336 16.3813 19.043 18.9375 13.9992 18.9375ZM13.8742 5.5C10.8367 5.5 8.3742 7.9625 8.3742 11C8.3742 14.0375 10.8367 16.5 13.8742 16.5C16.9117 16.5 19.3742 14.0375 19.3742 11C19.3742 7.9625 16.9117 5.5 13.8742 5.5ZM13.8742 14.5C11.9398 14.5 10.3742 12.9344 10.3742 11C10.3742 9.06563 11.9398 7.5 13.8742 7.5C15.8086 7.5 17.3742 9.06563 17.3742 11C17.3742 12.9344 15.8086 14.5 13.8742 14.5Z" fill="#737373"/>
</svg>