<svg xmlns="http://www.w3.org/2000/svg" viewBox="0 0 24 24">
  <path d="M1.66666 19.08C1.50523 19.0828 1.34553 19.0464 1.2012 18.9741C1.05688 18.9017 0.932217 18.7955 0.83788 18.6644C0.743543 18.5334 0.682333 18.3815 0.659481 18.2217C0.63663 18.0618 0.652816 17.8989 0.706658 17.7467L2.37332 12.2533C2.03248 11.3169 1.85217 10.3297 1.83999 9.33333C1.83736 8.1832 2.06872 7.04456 2.51999 5.98666C3.06704 4.68377 3.92531 3.53495 5.01957 2.64087C6.11383 1.74679 7.41068 1.13475 8.79646 0.858385C10.1822 0.582017 11.6147 0.649762 12.9682 1.05568C14.3217 1.4616 15.555 2.1933 16.56 3.18666C17.3399 3.97897 17.964 4.91066 18.4 5.93333C18.843 6.9888 19.0711 8.12199 19.0711 9.26666C19.0711 10.4113 18.843 11.5445 18.4 12.6C17.964 13.6227 17.3399 14.5544 16.56 15.3467C15.3908 16.5138 13.9116 17.3212 12.2975 17.6733C10.6835 18.0254 9.00235 17.9074 7.45332 17.3333L1.95999 19.04C1.86445 19.0664 1.76579 19.0799 1.66666 19.08ZM10.4533 2.66666C9.5692 2.66409 8.69375 2.84099 7.87999 3.18666C6.30354 3.85195 5.04325 5.09792 4.35999 6.66666C4.01712 7.4836 3.84052 8.36069 3.84052 9.24666C3.84052 10.1326 4.01712 11.0097 4.35999 11.8267C4.43942 12.0464 4.43942 12.287 4.35999 12.5067L3.13332 16.5067L7.13333 15.28C7.35303 15.2006 7.59362 15.2006 7.81332 15.28C9.43234 15.9524 11.2511 15.96 12.8756 15.3012C14.5002 14.6423 15.7999 13.3701 16.4933 11.76C16.8835 10.7627 17.0276 9.68603 16.9136 8.62119C16.7995 7.55635 16.4306 6.53467 15.8381 5.6426C15.2456 4.75053 14.4468 4.01433 13.5095 3.49632C12.5722 2.97831 11.5239 2.69373 10.4533 2.66666Z" fill="#737373"/>
  <path d="M22.3335 23.3333C22.2362 23.3463 22.1376 23.3463 22.0402 23.3333L16.5469 21.6666C14.4831 22.4459 12.1981 22.3983 10.1686 21.5338C8.13901 20.6693 6.52155 19.0547 5.65355 17.0266C5.59422 16.9066 5.56028 16.7757 5.55386 16.642C5.54743 16.5082 5.56866 16.3746 5.61621 16.2495C5.66376 16.1244 5.73662 16.0104 5.83022 15.9147C5.92382 15.819 6.03616 15.7436 6.16021 15.6933C6.28085 15.6378 6.41132 15.607 6.54402 15.6025C6.67672 15.598 6.80898 15.6199 6.9331 15.6671C7.05721 15.7143 7.17069 15.7857 7.26691 15.8772C7.36314 15.9686 7.44018 16.0784 7.49355 16.2C7.81047 16.9553 8.26228 17.6465 8.82688 18.24C9.76176 19.1646 10.9492 19.7921 12.2398 20.0436C13.5304 20.2951 14.8666 20.1593 16.0802 19.6533C16.2999 19.5739 16.5405 19.5739 16.7602 19.6533L20.7602 20.88L19.5335 16.88C19.4541 16.6602 19.4541 16.4197 19.5335 16.2C19.8792 15.3862 20.0561 14.5107 20.0535 13.6266C20.0567 12.7575 19.8875 11.8963 19.5556 11.093C19.2237 10.2897 18.7359 9.56014 18.1202 8.94662C17.8505 8.60575 17.5516 8.289 17.2269 7.99996C17.1103 7.93001 17.0092 7.83703 16.9298 7.72669C16.8504 7.61636 16.7943 7.49098 16.7649 7.35824C16.7356 7.22549 16.7336 7.08815 16.7592 6.95462C16.7847 6.82109 16.8372 6.69417 16.9134 6.58161C16.9897 6.46905 17.0881 6.37322 17.2026 6.29998C17.3172 6.22674 17.4454 6.17762 17.5796 6.15563C17.7138 6.13363 17.851 6.13923 17.9829 6.17207C18.1148 6.20491 18.2387 6.2643 18.3469 6.34662C18.8238 6.65451 19.2703 7.00722 19.6802 7.39996C20.4644 8.18875 21.0891 9.12132 21.5202 10.1466C21.9725 11.2089 22.2039 12.3521 22.2002 13.5066C22.1974 14.53 22.017 15.545 21.6669 16.5066L23.3335 22C23.3874 22.1522 23.4036 22.3151 23.3807 22.475C23.3579 22.6348 23.2967 22.7867 23.2023 22.9177C23.108 23.0488 22.9833 23.155 22.839 23.2274C22.6947 23.2997 22.535 23.3361 22.3735 23.3333H22.3335Z" fill="#737373"/>
</svg>